# xmcd
#
# Track frame offsets:
# 150
# 23434
# 39128
# 60687
# 80893
# 95796
# 119750
# 138454
# 156292
# 178803
# 195823
# 217304
# 236781
# 254335
# 273559
# 294137
# 311393
#
# Disc length: 4429 seconds
#
#
# Revision: 2
# Processed by: cddbd v1.5.2PL0 Copyright (c) Steve Scherf et al.
# Submitted via: FreeRIP 2.942 
#
DISCID=f9114b11
DTITLE=王傑 - 王傑萬歲 2001 新曲 and 精選
DYEAR=2001
DGENRE=pop
TTITLE0=萬歲
TTITLE1=我唔講粗口
TTITLE2=不浪漫罪名
TTITLE3=情已經失去了
TTITLE4=一個孤獨的理由
TTITLE5=退燒
TTITLE6=還原
TTITLE7=心癮
TTITLE8=我感到疲倦
TTITLE9=又愛孤獨又愛你
TTITLE10=飄流物語
TTITLE11=我會知道幾時要退
TTITLE12=今生無悔
TTITLE13=幾分傷心幾分痴
TTITLE14=可能
TTITLE15=傷心1999
TTITLE16=情卻
EXTD=
EXTT0=
EXTT1=
EXTT2=
EXTT3=
EXTT4=
EXTT5=
EXTT6=
EXTT7=
EXTT8=
EXTT9=
EXTT10=
EXTT11=
EXTT12=
EXTT13=
EXTT14=
EXTT15=
EXTT16=
PLAYORDER=
